<svg width="18" height="18" viewBox="0 0 18 18" fill="none" xmlns="http://www.w3.org/2000/svg">
<path fill-rule="evenodd" clip-rule="evenodd" d="M8.99925 6.74925C8.00025 6.74925 7.5 6.24975 7.5 5.24925C7.5 4.248 8.00025 3.74925 8.99925 3.74925C9.999 3.74925 10.5 4.248 10.5 5.24925C10.5 6.24975 9.999 6.74925 8.99925 6.74925V6.74925ZM10.5 13.35C10.5 13.845 10.095 14.25 9.6 14.25H9.15C8.655 14.25 8.25 13.845 8.25 13.35V9.75C7.755 9.75 7.5 9.345 7.5 8.85V8.4C7.5 7.905 7.905 7.5 8.4 7.5H9.6C10.095 7.5 10.5 7.905 10.5 8.4V13.35ZM9 0C4.02975 0 0 4.02975 0 9C0 13.9702 4.02975 18 9 18C13.9702 18 18 13.9702 18 9C18 4.02975 13.9702 0 9 0V0Z" fill="#007AFF"/>
</svg>
