<svg width="111" height="86" viewBox="0 0 111 86" fill="none" xmlns="http://www.w3.org/2000/svg">
<g filter="url(#filter0_d_2_856)">
<path fill-rule="evenodd" clip-rule="evenodd" d="M4 52.0874L4 82.0004H107V43.2617C104.372 48.4269 96.1675 52.0874 85.3383 52.0874H4Z" fill="white"/>
<path fill-rule="evenodd" clip-rule="evenodd" d="M4 50.0671V4H107V34.5682C107 46.1925 97.243 50.0676 85.3383 50.0676L4 50.0671Z" fill="white"/>
</g>
<path d="M72.5655 63.2629C72.5655 64.0884 72.0186 64.823 71.0649 64.823C70.827 64.832 70.5913 64.7771 70.3853 64.6645C70.1792 64.552 70.0113 64.3865 69.9012 64.1874V65.5246C69.9044 65.5566 69.9002 65.5889 69.889 65.6193C69.8777 65.6496 69.8596 65.6773 69.8359 65.7005C69.8122 65.7236 69.7835 65.7416 69.7517 65.7533C69.7199 65.765 69.6859 65.77 69.6518 65.7681C69.6174 65.7715 69.5826 65.7676 69.5501 65.7564C69.5175 65.7453 69.4881 65.7273 69.4641 65.7038C69.44 65.6803 69.422 65.652 69.4113 65.6209C69.4006 65.5899 69.3976 65.5569 69.4025 65.5246V61.9712C69.3976 61.9425 69.3998 61.9131 69.4089 61.8854C69.418 61.8576 69.4337 61.8322 69.4548 61.8111C69.4759 61.7899 69.5019 61.7737 69.5308 61.7635C69.5596 61.7533 69.5906 61.7495 69.6212 61.7524C69.6495 61.7519 69.6776 61.7567 69.7039 61.7667C69.7302 61.7766 69.7541 61.7915 69.7741 61.8104C69.7941 61.8293 69.8099 61.8518 69.8205 61.8766C69.831 61.9014 69.8362 61.9279 69.8356 61.9547L69.8662 62.3674C69.9757 62.1612 70.1456 61.989 70.3558 61.8712C70.5659 61.7535 70.8075 61.695 71.0518 61.7029C71.2633 61.7008 71.473 61.7407 71.667 61.8202C71.8611 61.8996 72.0352 62.0167 72.178 62.164C72.3209 62.3112 72.4292 62.4851 72.496 62.6745C72.5627 62.8638 72.5864 63.0644 72.5655 63.2629ZM69.8837 63.2629C69.8701 63.4062 69.8883 63.5505 69.937 63.6868C69.9858 63.8231 70.0642 63.9483 70.1671 64.0544C70.2699 64.1605 70.3951 64.2453 70.5346 64.3033C70.6742 64.3613 70.825 64.3912 70.9774 64.3912C71.1299 64.3912 71.2807 64.3613 71.4202 64.3033C71.5597 64.2453 71.6849 64.1605 71.7878 64.0544C71.8907 63.9483 71.969 63.8231 72.0178 63.6868C72.0666 63.5505 72.0847 63.4062 72.0711 63.2629C72.0711 62.9893 71.9559 62.7269 71.7508 62.5334C71.5457 62.3399 71.2675 62.2312 70.9774 62.2312C70.6873 62.2312 70.4091 62.3399 70.204 62.5334C69.9989 62.7269 69.8837 62.9893 69.8837 63.2629ZM76.3936 63.2175C76.3951 63.2475 76.3896 63.2775 76.3776 63.3053C76.3656 63.3331 76.3472 63.3581 76.3239 63.3785C76.3006 63.399 76.2728 63.4144 76.2425 63.4236C76.2122 63.4329 76.1802 63.4358 76.1486 63.4322H73.8692C73.8707 63.5769 73.9044 63.7198 73.9682 63.8515C74.032 63.9832 74.1244 64.1008 74.2396 64.1965C74.3547 64.2923 74.4899 64.3641 74.6364 64.4073C74.7829 64.4506 74.9374 64.4642 75.0898 64.4474C75.3726 64.4494 75.6526 64.396 75.9123 64.2906C76.0698 64.2452 76.1748 64.2906 76.1923 64.4185C76.2001 64.4647 76.1903 64.512 76.1647 64.552C76.1391 64.5921 76.0993 64.6223 76.0523 64.6373C75.7379 64.7708 75.3951 64.8344 75.0505 64.823C74.6142 64.8356 74.1905 64.6841 73.8726 64.402C73.5546 64.1199 73.3685 63.7302 73.3552 63.3187C73.3418 62.9071 73.5024 62.5074 73.8014 62.2075C74.1005 61.9076 74.5136 61.732 74.9498 61.7194C76.1092 61.7194 76.3936 62.582 76.3936 63.2175ZM73.8692 63.102H75.9298C75.9453 62.9738 75.9318 62.844 75.8902 62.7212C75.8485 62.5983 75.7798 62.4852 75.6884 62.3892C75.5971 62.2933 75.4851 62.2167 75.3601 62.1646C75.235 62.1124 75.0997 62.0859 74.963 62.0867C74.82 62.084 74.6779 62.1082 74.5451 62.1581C74.4122 62.2079 74.2912 62.2823 74.1893 62.3769C74.0874 62.4715 74.0066 62.5844 73.9516 62.7089C73.8966 62.8335 73.8686 62.9671 73.8692 63.102ZM78.8654 61.967C78.8654 62.1074 78.756 62.1858 78.6029 62.2105C78.3745 62.2325 78.1644 62.3383 78.0179 62.505C77.8714 62.6718 77.8002 62.8862 77.8198 63.102V64.5465C77.8198 64.6089 77.7935 64.6687 77.7468 64.7128C77.7 64.7569 77.6366 64.7817 77.5704 64.7817C77.5043 64.7817 77.4409 64.7569 77.3941 64.7128C77.3473 64.6687 77.321 64.6089 77.321 64.5465V61.9712C77.3172 61.943 77.3199 61.9143 77.329 61.8873C77.3382 61.8602 77.3535 61.8353 77.374 61.8145C77.3944 61.7936 77.4195 61.7772 77.4474 61.7665C77.4753 61.7558 77.5053 61.751 77.5354 61.7524C77.5622 61.7524 77.5888 61.7575 77.6135 61.7673C77.6382 61.7771 77.6606 61.7914 77.6793 61.8095C77.698 61.8276 77.7128 61.849 77.7226 61.8725C77.7325 61.896 77.7373 61.9211 77.7367 61.9464L77.7848 62.3591C77.85 62.1975 77.9598 62.0552 78.1029 61.9471C78.246 61.839 78.4171 61.7689 78.5985 61.7442C78.7735 61.7483 78.8654 61.8226 78.8654 61.967ZM81.5341 61.8639C81.6566 61.9093 81.7135 61.9835 81.696 62.0826C81.6885 62.1249 81.6647 62.163 81.6291 62.1897C81.5936 62.2164 81.5488 62.2297 81.5035 62.227C81.46 62.223 81.4173 62.2133 81.3766 62.1982C81.1565 62.1222 80.9241 62.0831 80.6897 62.0826C80.2522 62.0826 79.9898 62.2683 79.9898 62.5366C79.9898 62.8048 80.3616 62.9493 80.7772 63.0731C81.2847 63.2134 81.8535 63.3785 81.8535 63.9728C81.8535 64.5671 81.3328 64.8189 80.6416 64.8189C80.2896 64.8145 79.9413 64.7502 79.6135 64.629C79.5735 64.6113 79.5402 64.5824 79.5183 64.5462C79.4964 64.51 79.4868 64.4683 79.491 64.4268C79.4944 64.3859 79.5146 64.3479 79.5473 64.3209C79.58 64.2939 79.6226 64.2801 79.666 64.2823C79.7066 64.2769 79.7479 64.2769 79.7885 64.2823C80.0467 64.3778 80.3207 64.4295 80.5979 64.435C81.1185 64.435 81.346 64.2246 81.346 63.9604C81.346 63.6261 80.9347 63.5477 80.4972 63.4074C80.0598 63.2671 79.491 63.0979 79.491 62.5242C79.491 61.9505 80.0423 61.6988 80.6504 61.6988C80.9529 61.7048 81.252 61.7607 81.5341 61.8639ZM85.9353 63.2712C85.9448 63.5889 85.8537 63.902 85.6736 64.1706C85.4935 64.4391 85.2325 64.6509 84.9241 64.7788C84.6157 64.9066 84.2739 64.9448 83.9424 64.8884C83.6108 64.832 83.3047 64.6836 83.0631 64.4621C82.8214 64.2407 82.6553 63.9563 82.586 63.6453C82.5167 63.3343 82.5473 63.0108 82.6739 62.7163C82.8005 62.4218 83.0174 62.1697 83.2967 61.9921C83.5761 61.8145 83.9053 61.7195 84.2422 61.7194C84.4633 61.7092 84.6843 61.742 84.8914 61.8157C85.0986 61.8895 85.2874 62.0027 85.4462 62.1482C85.605 62.2938 85.7304 62.4686 85.8145 62.6617C85.8986 62.8549 85.9397 63.0624 85.9353 63.2712ZM85.4234 63.2712C85.4114 63.0536 85.3321 62.8441 85.1952 62.6686C85.0584 62.4932 84.87 62.3594 84.6534 62.2838C84.4368 62.2083 84.2014 62.1943 83.9765 62.2436C83.7515 62.2929 83.5468 62.4033 83.3877 62.5612C83.2285 62.7191 83.122 62.9175 83.0811 63.132C83.0403 63.3464 83.067 63.5674 83.1579 63.7677C83.2489 63.968 83.4 64.1387 83.5927 64.2588C83.7854 64.3788 84.0112 64.443 84.2422 64.4433C84.4033 64.4459 84.5633 64.417 84.7119 64.3582C84.8606 64.2995 84.9947 64.2122 85.1058 64.1021C85.2168 63.9919 85.3024 63.8611 85.3571 63.7181C85.4117 63.5751 85.4343 63.4229 85.4234 63.2712ZM89.6627 63.0153V64.5465C89.6674 64.5803 89.6645 64.6146 89.654 64.6472C89.6435 64.6798 89.6258 64.71 89.602 64.7356C89.5781 64.7612 89.5488 64.7818 89.5159 64.7958C89.483 64.8099 89.4473 64.8172 89.4111 64.8172C89.375 64.8172 89.3393 64.8099 89.3064 64.7958C89.2735 64.7818 89.2441 64.7612 89.2203 64.7356C89.1965 64.71 89.1788 64.6798 89.1683 64.6472C89.1578 64.6146 89.1548 64.5803 89.1596 64.5465V63.0071C89.1596 62.4334 88.8796 62.0991 88.3415 62.0991C88.2075 62.1031 88.0758 62.1329 87.9544 62.1866C87.833 62.2403 87.7246 62.3169 87.6357 62.4115C87.5468 62.5062 87.4793 62.617 87.4374 62.7372C87.3956 62.8573 87.3801 62.9843 87.3921 63.1102V64.5465C87.3921 64.5774 87.3857 64.6079 87.3731 64.6365C87.3606 64.665 87.3422 64.691 87.3191 64.7128C87.2959 64.7347 87.2684 64.752 87.2382 64.7638C87.2079 64.7756 87.1755 64.7817 87.1427 64.7817C87.11 64.7817 87.0776 64.7756 87.0473 64.7638C87.0171 64.752 86.9896 64.7347 86.9664 64.7128C86.9433 64.691 86.9249 64.665 86.9124 64.6365C86.8998 64.6079 86.8934 64.5774 86.8934 64.5465V61.9712C86.8934 61.8308 86.9677 61.7524 87.099 61.7524C87.2302 61.7524 87.2827 61.8061 87.3002 61.9505L87.3527 62.3632C87.4438 62.1584 87.6 61.9852 87.7999 61.8677C87.9997 61.7501 88.2333 61.694 88.4683 61.707C89.1858 61.7194 89.6715 62.1404 89.6715 63.0153H89.6627ZM93.2545 62.7182V64.2204C93.2545 64.402 93.377 64.3773 93.4995 64.3814C93.5227 64.3812 93.5457 64.3857 93.567 64.3946C93.5882 64.4036 93.6071 64.4167 93.6225 64.4331C93.6378 64.4496 93.6492 64.469 93.656 64.4899C93.6627 64.5109 93.6645 64.533 93.6614 64.5547C93.6631 64.5895 93.6546 64.6241 93.6369 64.6547C93.6191 64.6853 93.5928 64.7107 93.5608 64.7281C93.4584 64.7784 93.3434 64.8012 93.2283 64.7941C93.1741 64.7998 93.1193 64.7949 93.0672 64.7796C93.0152 64.7643 92.9671 64.7389 92.9259 64.7052C92.8848 64.6714 92.8516 64.63 92.8283 64.5835C92.805 64.537 92.7922 64.4864 92.7908 64.435V64.2493C92.6773 64.4385 92.5084 64.5929 92.3044 64.6939C92.1003 64.7949 91.8697 64.8383 91.6402 64.8189C91.0321 64.8189 90.5202 64.5341 90.5202 63.9068C90.5202 63.201 91.1633 62.9493 91.9333 62.9493C92.2114 62.9549 92.4889 62.9755 92.7645 63.0112V62.7553C92.7645 62.2312 92.4102 62.0908 91.9202 62.0908C91.6345 62.0937 91.3505 62.1325 91.0758 62.2064C91.0476 62.2169 91.0172 62.2209 90.9871 62.2182C90.957 62.2155 90.928 62.2061 90.9024 62.1908C90.8768 62.1755 90.8554 62.1548 90.8399 62.1302C90.8245 62.1057 90.8153 62.0781 90.8133 62.0496C90.8126 62.0012 90.8303 61.9542 90.8632 61.9171C90.8962 61.88 90.9421 61.8552 90.9927 61.8473C91.3207 61.764 91.6593 61.7237 91.9989 61.7277C92.7689 61.7194 93.2545 61.9918 93.2545 62.7182ZM91.0277 63.8737C91.0277 64.2865 91.3689 64.4639 91.7495 64.4639C92.0001 64.481 92.2475 64.4037 92.4378 64.249C92.628 64.0943 92.7455 63.8748 92.7645 63.6385V63.3125C92.5046 63.2686 92.2411 63.2465 91.977 63.2464C91.487 63.2629 91.0277 63.4033 91.0277 63.8737ZM94.9651 60.7743V64.2328C94.9651 64.3938 95.0395 64.4433 95.1751 64.435H95.2845C95.3061 64.4349 95.3276 64.4391 95.3474 64.4474C95.3672 64.4556 95.385 64.4678 95.3994 64.483C95.4139 64.4982 95.4248 64.5162 95.4314 64.5356C95.438 64.5551 95.4401 64.5757 95.4376 64.596C95.4351 64.6341 95.421 64.6708 95.397 64.7016C95.3729 64.7323 95.3399 64.7559 95.302 64.7693C95.206 64.8107 95.1012 64.8304 94.9957 64.8271C94.9214 64.8321 94.8468 64.8214 94.7774 64.7957C94.7081 64.7699 94.6457 64.7298 94.5949 64.6784C94.5441 64.6269 94.5062 64.5654 94.484 64.4982C94.4617 64.4311 94.4557 64.3602 94.4664 64.2906V60.7743C94.4664 60.7434 94.4728 60.7128 94.4853 60.6843C94.4979 60.6557 94.5162 60.6298 94.5394 60.608C94.5626 60.5861 94.59 60.5688 94.6203 60.557C94.6506 60.5451 94.683 60.5391 94.7157 60.5391C94.7485 60.5391 94.7809 60.5451 94.8112 60.557C94.8414 60.5688 94.8689 60.5861 94.8921 60.608C94.9152 60.6298 94.9336 60.6557 94.9461 60.6843C94.9587 60.7128 94.9651 60.7434 94.9651 60.7743ZM73.633 67.8481L72.7886 70.2996C72.7673 70.3729 72.7211 70.4375 72.6571 70.4835C72.5931 70.5295 72.5148 70.5545 72.4343 70.5545C72.3538 70.5545 72.2755 70.5295 72.2115 70.4835C72.1474 70.4375 72.1012 70.3729 72.0799 70.2996L71.4018 68.1659L70.7281 70.2996C70.7069 70.3719 70.6612 70.4356 70.598 70.4809C70.5348 70.5263 70.4575 70.5509 70.3781 70.5509C70.2986 70.5509 70.2214 70.5263 70.1581 70.4809C70.0949 70.4356 70.0492 70.3719 70.0281 70.2996L69.1837 67.8481C69.1181 67.65 69.2143 67.518 69.3981 67.518C69.5118 67.518 69.5862 67.5757 69.6343 67.7161L70.3868 69.9983L71.078 67.7573C71.0924 67.6889 71.1318 67.6274 71.1894 67.5837C71.247 67.5399 71.3191 67.5166 71.393 67.518C71.4657 67.5162 71.5364 67.5396 71.592 67.5837C71.6477 67.6278 71.6842 67.6896 71.6949 67.7573L72.3949 69.9983H72.4168L73.178 67.7078C73.2217 67.5634 73.3005 67.5056 73.4099 67.5056C73.6024 67.518 73.6986 67.65 73.633 67.8481ZM75.3042 67.5345C75.3361 67.5326 75.3681 67.5372 75.398 67.548C75.4278 67.5588 75.4549 67.5756 75.4773 67.5971C75.4997 67.6186 75.5169 67.6444 75.5278 67.6728C75.5387 67.7012 75.543 67.7314 75.5405 67.7615V70.3079C75.5405 70.3388 75.534 70.3694 75.5215 70.3979C75.5089 70.4264 75.4906 70.4524 75.4674 70.4742C75.4443 70.4961 75.4168 70.5134 75.3865 70.5252C75.3563 70.537 75.3238 70.5431 75.2911 70.5431C75.2583 70.5431 75.2259 70.537 75.1957 70.5252C75.1654 70.5134 75.1379 70.4961 75.1148 70.4742C75.0916 70.4524 75.0732 70.4264 75.0607 70.3979C75.0482 70.3694 75.0417 70.3388 75.0417 70.3079V67.9678L74.8492 67.9183C74.8027 67.9062 74.7618 67.8797 74.7332 67.843C74.7046 67.8063 74.69 67.7616 74.6917 67.7161C74.6908 67.6902 74.6959 67.6644 74.7067 67.6406C74.7175 67.6168 74.7336 67.5955 74.7541 67.5781C74.7745 67.5608 74.7987 67.548 74.8249 67.5404C74.8512 67.5329 74.8789 67.5308 74.9061 67.5345H75.3042ZM75.5667 66.7297V66.8453C75.567 66.8813 75.5592 66.917 75.5436 66.9499C75.5281 66.9828 75.5052 67.0122 75.4766 67.036C75.448 67.0599 75.4143 67.0777 75.3777 67.0882C75.3412 67.0987 75.3027 67.1017 75.2648 67.097C75.2275 67.1012 75.1897 67.0977 75.1539 67.0868C75.1181 67.076 75.0852 67.0581 75.0574 67.0342C75.0296 67.0103 75.0076 66.9811 74.9928 66.9485C74.978 66.9159 74.9708 66.8807 74.9717 66.8453V66.7297C74.9703 66.6938 74.977 66.6579 74.9915 66.6247C75.006 66.5914 75.0278 66.5614 75.0556 66.5368C75.0834 66.5122 75.1164 66.4934 75.1525 66.4818C75.1886 66.4703 75.2269 66.4661 75.2648 66.4697C75.3033 66.4656 75.3423 66.4692 75.3791 66.4805C75.416 66.4918 75.4498 66.5103 75.4784 66.535C75.507 66.5596 75.5297 66.5897 75.5449 66.6233C75.5602 66.6569 75.5676 66.6932 75.5667 66.7297ZM78.5635 67.7326C78.5635 67.8688 78.4498 67.9513 78.2967 67.9719C78.0682 67.9949 77.8585 68.1017 77.7128 68.2692C77.5671 68.4368 77.4971 68.6517 77.5179 68.8675V70.3079C77.5205 70.3401 77.5157 70.3725 77.5039 70.4029C77.4921 70.4332 77.4736 70.4608 77.4496 70.4839C77.4255 70.5069 77.3966 70.5249 77.3646 70.5365C77.3326 70.5482 77.2984 70.5532 77.2642 70.5514C77.2301 70.5533 77.1961 70.5483 77.1643 70.5366C77.1325 70.5249 77.1038 70.5069 77.0801 70.4838C77.0564 70.4606 77.0383 70.4329 77.027 70.4026C77.0158 70.3722 77.0116 70.3399 77.0148 70.3079V67.7367C77.0109 67.7085 77.0136 67.6799 77.0228 67.6528C77.0319 67.6257 77.0473 67.6009 77.0677 67.58C77.0882 67.5591 77.1132 67.5428 77.1411 67.5321C77.169 67.5213 77.1991 67.5165 77.2292 67.518C77.281 67.5201 77.33 67.541 77.3659 67.5764C77.4017 67.6118 77.4217 67.6589 77.4217 67.7078L77.4698 68.1205C77.5373 67.9588 77.6497 67.8171 77.7952 67.7104C77.9406 67.6037 78.1138 67.5358 78.2967 67.5138C78.4717 67.5138 78.5635 67.5881 78.5635 67.7326ZM82.3741 68.9707C82.3756 69.0007 82.3701 69.0307 82.3581 69.0585C82.3461 69.0863 82.3278 69.1113 82.3044 69.1317C82.2811 69.1521 82.2533 69.1675 82.223 69.1768C82.1927 69.186 82.1607 69.189 82.1291 69.1853H79.8498C79.8518 69.3299 79.886 69.4725 79.95 69.6039C80.0141 69.7352 80.1065 69.8525 80.2215 69.9482C80.3365 70.0438 80.4714 70.1157 80.6176 70.1591C80.7638 70.2026 80.918 70.2167 81.0704 70.2006C81.3531 70.2025 81.6331 70.1491 81.8928 70.0437C82.0503 69.9983 82.1553 70.0437 82.1728 70.1717C82.1797 70.2178 82.1696 70.2647 82.1441 70.3046C82.1186 70.3444 82.0793 70.3747 82.0328 70.3904C81.7181 70.5228 81.3753 70.585 81.031 70.572C80.8098 70.5871 80.5877 70.5598 80.3779 70.4918C80.1682 70.4239 79.9752 70.3166 79.8105 70.1764C79.6459 70.0363 79.513 69.8662 79.4198 69.6764C79.3266 69.4865 79.275 69.2809 79.2682 69.0718C79.2615 68.8627 79.2996 68.6544 79.3803 68.4596C79.461 68.2647 79.5826 68.0872 79.7379 67.9379C79.8931 67.7885 80.0788 67.6703 80.2837 67.5903C80.4886 67.5103 80.7086 67.4703 80.9304 67.4726C82.0766 67.485 82.3741 68.3475 82.3741 68.9831V68.9707ZM79.8498 68.8551H81.9103C81.9258 68.727 81.9123 68.5972 81.8707 68.4743C81.8291 68.3515 81.7603 68.2384 81.6689 68.1424C81.5776 68.0465 81.4657 67.9699 81.3406 67.9177C81.2156 67.8656 81.0802 67.8391 80.9435 67.8399C80.7994 67.8371 80.6562 67.8617 80.5225 67.9123C80.3887 67.9629 80.2672 68.0385 80.1651 68.1344C80.063 68.2303 79.9824 68.3447 79.9282 68.4707C79.8741 68.5966 79.8474 68.7316 79.8498 68.8675V68.8551ZM84.1197 66.5275V69.986C84.1197 70.1469 84.1897 70.1923 84.3253 70.1882H84.4347C84.4563 70.1881 84.4778 70.1923 84.4976 70.2005C84.5174 70.2088 84.5352 70.2209 84.5496 70.2362C84.5641 70.2514 84.575 70.2693 84.5816 70.2888C84.5882 70.3083 84.5903 70.3288 84.5878 70.3492C84.5862 70.388 84.5724 70.4256 84.5483 70.4571C84.5242 70.4887 84.4908 70.5129 84.4522 70.5266C84.3553 70.5649 84.2509 70.5832 84.1459 70.5803C83.7566 70.5803 83.6166 70.3409 83.6166 70.0437V66.5357C83.6127 66.5039 83.6162 66.4717 83.6269 66.4413C83.6377 66.4109 83.6553 66.3832 83.6787 66.3599C83.7021 66.3367 83.7306 66.3186 83.7622 66.3069C83.7938 66.2952 83.8277 66.2902 83.8616 66.2922C83.8967 66.2889 83.9322 66.2931 83.9654 66.3044C83.9986 66.3158 84.0287 66.334 84.0535 66.3577C84.0782 66.3815 84.097 66.4102 84.1085 66.4417C84.12 66.4732 84.1238 66.5068 84.1197 66.5398V66.5275ZM88.5646 68.9707C88.5661 69.0007 88.5606 69.0307 88.5486 69.0585C88.5366 69.0863 88.5183 69.1113 88.4949 69.1317C88.4716 69.1521 88.4438 69.1675 88.4136 69.1768C88.3833 69.186 88.3512 69.189 88.3196 69.1853H86.0403C86.0423 69.3303 86.0766 69.4733 86.1409 69.6049C86.2052 69.7366 86.298 69.8541 86.4135 69.9498C86.529 70.0455 86.6644 70.1173 86.8112 70.1605C86.9579 70.2037 87.1126 70.2173 87.2652 70.2006C87.5465 70.2021 87.825 70.1487 88.0834 70.0437C88.2409 69.9983 88.3459 70.0437 88.3634 70.1717C88.3703 70.2178 88.3601 70.2647 88.3346 70.3046C88.3091 70.3444 88.2698 70.3747 88.2234 70.3904C87.9087 70.5228 87.5658 70.585 87.2215 70.572C87.0003 70.5871 86.7782 70.5598 86.5684 70.4918C86.3587 70.4239 86.1657 70.3166 86.001 70.1764C85.8364 70.0363 85.7035 69.8662 85.6103 69.6764C85.5171 69.4865 85.4655 69.2809 85.4587 69.0718C85.452 68.8627 85.4901 68.6544 85.5708 68.4596C85.6515 68.2647 85.7731 68.0872 85.9284 67.9379C86.0836 67.7885 86.2693 67.6703 86.4742 67.5903C86.6792 67.5103 86.8991 67.4703 87.1209 67.4726C88.2671 67.485 88.5646 68.3475 88.5646 68.9831V68.9707ZM86.0403 68.8551H88.1009C88.1163 68.727 88.1028 68.5972 88.0612 68.4743C88.0196 68.3515 87.9508 68.2384 87.8594 68.1424C87.7681 68.0465 87.6562 67.9699 87.5311 67.9177C87.4061 67.8656 87.2707 67.8391 87.134 67.8399C86.9899 67.8371 86.8467 67.8617 86.713 67.9123C86.5792 67.9629 86.4577 68.0385 86.3556 68.1344C86.2535 68.2303 86.1729 68.3447 86.1188 68.4707C86.0646 68.5966 86.0379 68.7316 86.0403 68.8675V68.8551ZM91.6402 67.617C91.7627 67.6624 91.8152 67.7367 91.7977 67.8358C91.7902 67.8773 91.7671 67.9148 91.7325 67.9414C91.6978 67.968 91.6541 67.9818 91.6095 67.9802C91.5659 67.9771 91.523 67.9673 91.4827 67.9513C91.2625 67.8758 91.0301 67.8367 90.7958 67.8358C90.3364 67.8358 90.0914 68.0215 90.0914 68.2897C90.0914 68.558 90.4677 68.7024 90.8833 68.8263C91.3908 68.9666 91.9595 69.1317 91.9595 69.726C91.9595 70.3203 91.4389 70.5514 90.7477 70.5514C90.3952 70.5516 90.046 70.4871 89.7196 70.3615C89.6778 70.3461 89.6428 70.3176 89.6205 70.2808C89.5983 70.244 89.59 70.2011 89.5971 70.1593C89.6004 70.1192 89.62 70.0818 89.6518 70.0549C89.6835 70.028 89.725 70.0137 89.7677 70.0149C89.8099 70.0154 89.8515 70.0238 89.8902 70.0396C90.1499 70.1351 90.4253 70.1868 90.7039 70.1923C91.2245 70.1923 91.452 69.9818 91.452 69.7177C91.452 69.3834 91.0408 69.305 90.5989 69.1647C90.1571 69.0244 89.5971 68.851 89.5971 68.2815C89.5971 67.7119 90.1483 67.4561 90.7521 67.4561C91.0565 67.4652 91.3569 67.5239 91.6402 67.6294V67.617ZM95.0132 67.617C95.1357 67.6624 95.1926 67.7367 95.1751 67.8358C95.1676 67.878 95.1438 67.9162 95.1083 67.9428C95.0727 67.9695 95.0279 67.9828 94.9826 67.9802C94.939 67.9766 94.8963 67.9669 94.8557 67.9513C94.6357 67.8754 94.4032 67.8363 94.1689 67.8358C93.7314 67.8358 93.4689 68.0215 93.4689 68.2897C93.4689 68.558 93.8408 68.7024 94.2564 68.8263C94.7639 68.9666 95.3326 69.1317 95.3326 69.726C95.3326 70.3203 94.812 70.5514 94.1208 70.5514C93.7683 70.5511 93.4192 70.4866 93.0926 70.3615C93.0511 70.346 93.0167 70.3173 92.9951 70.2804C92.9736 70.2435 92.9663 70.2007 92.9745 70.1593C92.9756 70.1392 92.9809 70.1196 92.9901 70.1015C92.9993 70.0833 93.0122 70.0671 93.028 70.0537C93.0439 70.0403 93.0624 70.0299 93.0825 70.0233C93.1026 70.0166 93.1239 70.0137 93.1451 70.0149C93.1873 70.0154 93.2289 70.0238 93.2676 70.0396C93.5258 70.1351 93.7998 70.1868 94.077 70.1923C94.5976 70.1923 94.8251 69.9818 94.8251 69.7177C94.8251 69.3834 94.4139 69.305 93.9764 69.1647C93.5389 69.0244 92.9745 68.851 92.9745 68.2815C92.9745 67.7119 93.5214 67.4561 94.1295 67.4561C94.4325 67.4653 94.7315 67.5239 95.0132 67.6294V67.617ZM69.9187 72.3013V75.7639C69.9187 75.9248 69.9931 75.9702 70.1287 75.9661H70.2381C70.2597 75.966 70.2812 75.9702 70.301 75.9785C70.3208 75.9867 70.3385 75.9989 70.353 76.0141C70.3675 76.0293 70.3784 76.0472 70.385 76.0667C70.3915 76.0862 70.3937 76.1068 70.3912 76.1271C70.3899 76.1655 70.3762 76.2027 70.3519 76.2337C70.3277 76.2646 70.2941 76.2879 70.2556 76.3004C70.1597 76.342 70.0548 76.3618 69.9493 76.3582C69.5599 76.3582 69.4199 76.1188 69.4199 75.8217V72.3013C69.4199 72.2389 69.4462 72.179 69.493 72.1349C69.5398 72.0908 69.6032 72.066 69.6693 72.066C69.7355 72.066 69.7989 72.0908 69.8456 72.1349C69.8924 72.179 69.9187 72.2389 69.9187 72.3013ZM71.9049 73.3C71.9368 73.2981 71.9688 73.3028 71.9986 73.3136C72.0285 73.3244 72.0555 73.3411 72.078 73.3626C72.1004 73.3842 72.1176 73.41 72.1285 73.4383C72.1394 73.4667 72.1437 73.4969 72.1411 73.527V76.0734C72.1411 76.1358 72.1149 76.1956 72.0681 76.2398C72.0213 76.2839 71.9579 76.3087 71.8918 76.3087C71.8256 76.3087 71.7622 76.2839 71.7154 76.2398C71.6687 76.1956 71.6424 76.1358 71.6424 76.0734V73.7334L71.4499 73.6797C71.4049 73.6685 71.3652 73.6432 71.3374 73.608C71.3096 73.5728 71.2953 73.5297 71.2968 73.4857C71.2968 73.3784 71.3755 73.3083 71.5112 73.3083L71.9049 73.3ZM72.1674 72.4746V72.5902C72.1676 72.6263 72.1597 72.6622 72.1442 72.6952C72.1287 72.7283 72.106 72.7579 72.0774 72.7821C72.0489 72.8063 72.0153 72.8245 71.9788 72.8355C71.9422 72.8465 71.9036 72.8501 71.8655 72.846C71.828 72.8496 71.79 72.8455 71.7543 72.8342C71.7185 72.8228 71.6857 72.8045 71.658 72.7803C71.6303 72.7561 71.6083 72.7267 71.5936 72.6939C71.5788 72.6611 71.5716 72.6258 71.5724 72.5902V72.4746C71.5716 72.439 71.5788 72.4037 71.5936 72.3709C71.6083 72.3381 71.6303 72.3087 71.658 72.2845C71.6857 72.2603 71.7185 72.2419 71.7543 72.2306C71.79 72.2193 71.828 72.2152 71.8655 72.2187C71.9055 72.2137 71.9461 72.2172 71.9845 72.2288C72.0229 72.2405 72.058 72.2601 72.0873 72.2862C72.1167 72.3123 72.1395 72.3442 72.1541 72.3797C72.1687 72.4151 72.1747 72.4532 72.1718 72.4911L72.1674 72.4746ZM75.1817 73.3H76.0305C76.1486 73.3 76.2404 73.3537 76.2404 73.461C76.2429 73.5063 76.2263 73.5507 76.1944 73.5846C76.1625 73.6186 76.1178 73.6394 76.0698 73.6426L75.7242 73.6797C75.8206 73.7505 75.8972 73.8424 75.9475 73.9473C75.9978 74.0523 76.0203 74.1673 76.013 74.2823C76.013 74.8353 75.5755 75.2274 74.7967 75.2274C74.5843 75.2351 74.373 75.1955 74.1799 75.1118C74.1214 75.1387 74.0713 75.1795 74.0345 75.2301C73.9976 75.2808 73.9754 75.3395 73.9699 75.4007C73.9699 75.735 74.6392 75.7185 75.0898 75.7185C75.8248 75.7185 76.1705 75.9702 76.1705 76.4325C76.1705 77.1588 75.3786 77.2909 74.858 77.2909C74.2455 77.2909 73.4405 77.1877 73.4405 76.4655C73.4485 76.3376 73.4936 76.2142 73.5707 76.1087C73.6478 76.0032 73.7541 75.9196 73.878 75.8671C73.7814 75.8333 73.6985 75.7716 73.6412 75.6909C73.5838 75.6101 73.555 75.5144 73.5586 75.4172C73.5682 75.3162 73.6039 75.219 73.6627 75.1341C73.7214 75.0492 73.8014 74.9792 73.8955 74.9302C73.7923 74.8426 73.7107 74.7348 73.6563 74.6143C73.6019 74.4938 73.576 74.3636 73.5805 74.2327C73.5805 73.5889 74.0792 73.2381 74.8098 73.2381C74.9359 73.2455 75.0606 73.2662 75.1817 73.3ZM73.8911 76.4366C73.8911 76.8823 74.4161 76.9319 74.823 76.9319C75.2298 76.9319 75.698 76.8823 75.698 76.4449C75.698 76.156 75.4792 76.061 75.0373 76.061C74.7448 76.0769 74.4513 76.0616 74.1624 76.0156C74.0818 76.0571 74.0144 76.1178 73.9667 76.1917C73.9191 76.2656 73.893 76.3501 73.8911 76.4366ZM74.0267 74.2534C74.0267 74.6372 74.2761 74.8931 74.7792 74.8931C75.2823 74.8931 75.523 74.6455 75.523 74.2534C75.5302 74.1631 75.5161 74.0725 75.4816 73.988C75.4471 73.9035 75.3932 73.8273 75.3237 73.7649C75.2542 73.7025 75.1709 73.6555 75.0797 73.6272C74.9886 73.5989 74.8919 73.59 74.7967 73.6013C74.3155 73.6013 74.0267 73.8324 74.0267 74.2534ZM77.916 72.3136V73.8242C78.0186 73.6415 78.1744 73.4904 78.3652 73.3887C78.5559 73.2871 78.7735 73.2391 78.9923 73.2505C79.7054 73.2505 80.1822 73.6632 80.1822 74.5464V76.061C80.1822 76.1234 80.156 76.1833 80.1092 76.2274C80.0624 76.2715 79.999 76.2963 79.9329 76.2963C79.8667 76.2963 79.8033 76.2715 79.7565 76.2274C79.7098 76.1833 79.6835 76.1234 79.6835 76.061V74.534C79.6835 73.9645 79.3991 73.6302 78.861 73.6302C78.7274 73.6336 78.5959 73.6628 78.4748 73.7162C78.3536 73.7695 78.2454 73.8457 78.1568 73.9402C78.0682 74.0346 78.0011 74.1452 77.9597 74.2651C77.9182 74.385 77.9034 74.5117 77.916 74.6372V76.061C77.9208 76.0948 77.9178 76.1292 77.9073 76.1618C77.8969 76.1944 77.8791 76.2246 77.8553 76.2502C77.8315 76.2758 77.8021 76.2964 77.7692 76.3104C77.7363 76.3245 77.7006 76.3318 77.6645 76.3318C77.6284 76.3318 77.5926 76.3245 77.5597 76.3104C77.5268 76.2964 77.4975 76.2758 77.4737 76.2502C77.4499 76.2246 77.4321 76.1944 77.4216 76.1618C77.4112 76.1292 77.4082 76.0948 77.4129 76.061V72.3136C77.4082 72.2799 77.4112 72.2455 77.4216 72.2129C77.4321 72.1803 77.4499 72.1501 77.4737 72.1245C77.4975 72.0989 77.5268 72.0783 77.5597 72.0643C77.5926 72.0502 77.6284 72.0429 77.6645 72.0429C77.7006 72.0429 77.7363 72.0502 77.7692 72.0643C77.8021 72.0783 77.8315 72.0989 77.8553 72.1245C77.8791 72.1501 77.8969 72.1803 77.9073 72.2129C77.9178 72.2455 77.9208 72.2799 77.916 72.3136ZM82.1772 72.6273V73.3H82.9035C83.0391 73.3 83.1135 73.3702 83.1135 73.4692C83.113 73.494 83.1071 73.5185 83.096 73.541C83.085 73.5635 83.069 73.5835 83.0492 73.5999C83.0294 73.6162 83.0062 73.6284 82.9811 73.6358C82.956 73.6431 82.9296 73.6455 82.9035 73.6426H82.1772V75.4048C82.1772 75.8175 82.3172 75.9868 82.6541 75.9868C82.7352 75.9857 82.8159 75.976 82.8947 75.9579C82.92 75.9499 82.947 75.9478 82.9734 75.9518C82.9997 75.9557 83.0247 75.9656 83.0461 75.9806C83.0676 75.9956 83.0849 76.0152 83.0966 76.0378C83.1083 76.0604 83.1141 76.0854 83.1135 76.1106C83.1135 76.2303 82.9866 76.2757 82.9472 76.288C82.8163 76.3303 82.6787 76.3512 82.5403 76.3499C81.941 76.3499 81.6654 76.0363 81.6654 75.3925V73.6426H81.3766C81.241 73.6426 81.1666 73.5889 81.1666 73.4899C81.1666 73.3908 81.2279 73.3537 81.3285 73.3372L81.6654 73.3L81.7179 72.6149C81.719 72.5878 81.7257 72.5612 81.7378 72.5366C81.7498 72.5119 81.7669 72.4898 81.7881 72.4714C81.8092 72.453 81.8339 72.4387 81.8609 72.4293C81.8879 72.42 81.9166 72.4157 81.9453 72.4168C81.976 72.413 82.0072 72.4157 82.0366 72.4248C82.066 72.4339 82.0928 72.4491 82.1151 72.4693C82.1374 72.4896 82.1545 72.5143 82.1653 72.5416C82.176 72.569 82.1801 72.5983 82.1772 72.6273ZM84.7365 73.3C84.7686 73.2982 84.8008 73.3029 84.8308 73.3136C84.8609 73.3244 84.8882 73.341 84.9109 73.3625C84.9337 73.3839 84.9513 73.4097 84.9627 73.4381C84.9742 73.4664 84.9791 73.4967 84.9772 73.527V76.0734C84.9819 76.1072 84.9789 76.1416 84.9685 76.1742C84.958 76.2068 84.9402 76.2369 84.9164 76.2626C84.8926 76.2882 84.8633 76.3087 84.8304 76.3228C84.7975 76.3369 84.7617 76.3442 84.7256 76.3442C84.6895 76.3442 84.6538 76.3369 84.6209 76.3228C84.5879 76.3087 84.5586 76.2882 84.5348 76.2626C84.511 76.2369 84.4932 76.2068 84.4828 76.1742C84.4723 76.1416 84.4693 76.1072 84.474 76.0734V73.7334L84.2859 73.6797C84.2385 73.6691 84.1967 73.6429 84.1678 73.6059C84.139 73.5688 84.125 73.5233 84.1284 73.4775C84.1275 73.4521 84.1325 73.4269 84.143 73.4036C84.1536 73.3802 84.1694 73.3594 84.1895 73.3425C84.2095 73.3255 84.2332 73.313 84.2589 73.3056C84.2847 73.2983 84.3118 73.2964 84.3384 73.3H84.7365ZM84.999 72.4746V72.5902C84.9999 72.6261 84.9926 72.6619 84.9776 72.695C84.9626 72.7281 84.9402 72.7577 84.912 72.782C84.8839 72.8062 84.8505 72.8245 84.8142 72.8356C84.7778 72.8466 84.7395 72.8502 84.7015 72.846C84.664 72.8496 84.6261 72.8455 84.5903 72.8342C84.5545 72.8228 84.5217 72.8045 84.494 72.7803C84.4663 72.7561 84.4443 72.7267 84.4296 72.6939C84.4148 72.6611 84.4076 72.6258 84.4084 72.5902V72.4746C84.4172 72.4066 84.4521 72.3439 84.5065 72.2985C84.5609 72.253 84.6311 72.2279 84.7037 72.2279C84.7764 72.2279 84.8465 72.253 84.9009 72.2985C84.9554 72.3439 84.9902 72.4066 84.999 72.4746ZM89.2165 74.5381V76.0652C89.2165 76.1276 89.1902 76.1874 89.1434 76.2315C89.0967 76.2756 89.0332 76.3004 88.9671 76.3004C88.901 76.3004 88.8375 76.2756 88.7908 76.2315C88.744 76.1874 88.7177 76.1276 88.7177 76.0652V74.534C88.7177 73.9645 88.4377 73.6302 87.8996 73.6302C87.7656 73.633 87.6337 73.6619 87.512 73.715C87.3903 73.768 87.2816 73.8442 87.1925 73.9387C87.1034 74.0332 87.0359 74.144 86.9942 74.2641C86.9526 74.3843 86.9376 74.5113 86.9503 74.6372V76.0734C86.9535 76.1054 86.9493 76.1378 86.938 76.1681C86.9268 76.1985 86.9087 76.2262 86.885 76.2493C86.8613 76.2724 86.8325 76.2905 86.8008 76.3021C86.769 76.3138 86.7349 76.3189 86.7009 76.3169C86.6667 76.3188 86.6324 76.3137 86.6005 76.3021C86.5685 76.2904 86.5395 76.2725 86.5155 76.2494C86.4915 76.2264 86.4729 76.1988 86.4612 76.1684C86.4494 76.138 86.4446 76.1057 86.4471 76.0734V73.4857C86.4471 73.3413 86.5215 73.267 86.6571 73.267C86.7927 73.267 86.8409 73.3207 86.8584 73.461L86.9065 73.8737C86.9984 73.6685 87.1554 73.4952 87.356 73.3777C87.5565 73.2602 87.7908 73.2042 88.0265 73.2175C88.7396 73.2505 89.234 73.6673 89.234 74.5464L89.2165 74.5381ZM92.082 73.3H92.9351C93.0489 73.3 93.1408 73.3537 93.1408 73.461C93.1432 73.5063 93.1267 73.5507 93.0948 73.5846C93.0629 73.6186 93.0181 73.6394 92.9701 73.6426L92.6289 73.6797C92.7239 73.7514 92.7993 73.8435 92.8488 73.9484C92.8982 74.0532 92.9204 74.1677 92.9133 74.2823C92.9133 74.8353 92.4758 75.2274 91.697 75.2274C91.4847 75.2347 91.2735 75.1951 91.0802 75.1118C91.0222 75.1389 90.9728 75.1798 90.9367 75.2305C90.9007 75.2812 90.8792 75.3398 90.8746 75.4007C90.8746 75.735 91.5395 75.7185 91.9902 75.7185C92.7251 75.7185 93.0751 75.9702 93.0751 76.4325C93.0751 77.1588 92.2789 77.2909 91.7627 77.2909C91.1502 77.2909 90.3452 77.1877 90.3452 76.4655C90.3532 76.3376 90.3982 76.2142 90.4754 76.1087C90.5525 76.0032 90.6588 75.9196 90.7827 75.8671C90.6865 75.8331 90.6042 75.7713 90.5476 75.6905C90.491 75.6097 90.463 75.514 90.4677 75.4172C90.4773 75.3162 90.513 75.219 90.5717 75.1341C90.6305 75.0492 90.7104 74.9792 90.8046 74.9302C90.6999 74.8435 90.617 74.736 90.5617 74.6154C90.5065 74.4947 90.4804 74.3641 90.4852 74.2327C90.4852 73.5889 90.9883 73.2381 91.7145 73.2381C91.8391 73.2456 91.9624 73.2663 92.082 73.3ZM90.7958 76.4366C90.7958 76.8823 91.3208 76.9319 91.7233 76.9319C92.1258 76.9319 92.5983 76.8823 92.5983 76.4449C92.5983 76.156 92.3795 76.061 91.9377 76.061C91.6451 76.0767 91.3516 76.0614 91.0627 76.0156C90.9827 76.0573 90.9158 76.1182 90.869 76.1921C90.8221 76.2661 90.7968 76.3504 90.7958 76.4366ZM90.9271 74.2534C90.9271 74.6372 91.1808 74.8931 91.6795 74.8931C92.1783 74.8931 92.4276 74.6455 92.4276 74.2534C92.4348 74.1635 92.4207 74.0733 92.3865 73.9891C92.3523 73.905 92.2988 73.829 92.2298 73.7667C92.1608 73.7044 92.078 73.6572 91.9874 73.6286C91.8968 73.6 91.8007 73.5907 91.7058 73.6013C91.2158 73.6013 90.9271 73.8324 90.9271 74.2534Z" fill="#5D5D5D"/>
<path d="M13.4849 70.013V75.8807C13.4849 76.172 13.6025 76.4513 13.8118 76.6572C14.0211 76.8632 14.3049 76.9789 14.6009 76.9789C14.8968 76.9789 15.1807 76.8632 15.39 76.6572C15.5992 76.4513 15.7168 76.172 15.7168 75.8807V70.013H13.4849ZM24.9523 70.013V75.8807C24.9523 76.025 24.9812 76.1678 25.0373 76.301C25.0934 76.4342 25.1756 76.5553 25.2792 76.6572C25.3828 76.7592 25.5058 76.8401 25.6412 76.8953C25.7766 76.9505 25.9217 76.9789 26.0683 76.9789C26.2148 76.9789 26.3599 76.9505 26.4953 76.8953C26.6307 76.8401 26.7537 76.7592 26.8573 76.6572C26.961 76.5553 27.0432 76.4342 27.0992 76.301C27.1553 76.1678 27.1842 76.025 27.1842 75.8807V70.013H24.9523ZM43.1652 70.013V70.5457C43.1652 73.3484 41.1333 75.5447 38.535 75.5447C35.4537 75.5447 33.963 73.9057 33.963 70.6277V70.013H31.7312V70.726C31.7312 75.053 33.8048 77.2821 37.8854 77.2821C38.9687 77.338 40.0446 77.0777 40.978 76.5338C41.9115 75.99 42.6608 75.1869 43.1319 74.2253V74.1516V75.9709C43.1319 76.2621 43.2495 76.5415 43.4588 76.7474C43.6681 76.9533 43.9519 77.069 44.2479 77.069C44.5438 77.069 44.8277 76.9533 45.0369 76.7474C45.2462 76.5415 45.3638 76.2621 45.3638 75.9709V70.013H43.1652ZM31.7312 62.4571V68.374H33.963V62.4571C33.963 62.1658 33.8455 61.8865 33.6362 61.6806C33.4269 61.4746 33.1431 61.3589 32.8471 61.3589C32.5511 61.3589 32.2673 61.4746 32.058 61.6806C31.8487 61.8865 31.7312 62.1658 31.7312 62.4571ZM43.1652 62.4571V68.374H45.3971V62.4571C45.3971 62.1658 45.2795 61.8865 45.0703 61.6806C44.861 61.4746 44.5771 61.3589 44.2812 61.3589C43.9852 61.3589 43.7014 61.4746 43.4921 61.6806C43.2828 61.8865 43.1652 62.1658 43.1652 62.4571ZM52.2259 68.3002C52.4841 64.9566 54.7242 62.8013 57.9055 62.8013C60.3455 62.8013 62.9021 64.2518 62.9021 68.3084V68.374H52.2176L52.2259 68.3002ZM49.9441 68.374H48.52C48.2992 68.374 48.0873 68.4603 47.9312 68.614C47.775 68.7677 47.6872 68.9762 47.6872 69.1935C47.6872 69.4109 47.775 69.6193 47.9312 69.773C48.0873 69.9267 48.2992 70.013 48.52 70.013H49.9441C50.2689 74.4302 53.4834 77.2493 58.3385 77.2493C60.0566 77.3087 61.7657 76.9808 63.3352 76.2905C63.5418 76.2249 63.7181 76.0891 63.8325 75.9075C63.9469 75.7259 63.992 75.5102 63.9598 75.2989C63.9497 75.195 63.916 75.0947 63.8613 75.0053C63.8065 74.9159 63.732 74.8398 63.6433 74.7826C63.501 74.7179 63.3462 74.6845 63.1895 74.6845C63.0327 74.6845 62.8779 74.7179 62.7356 74.7826C62.4608 74.8645 62.2193 74.9547 61.9778 75.0366C60.886 75.4568 59.7182 75.652 58.5467 75.6103C54.7909 75.6103 52.3092 73.455 52.2176 70.1032V70.013H63.8765C64.0157 70.0298 64.1568 70.0166 64.2903 69.9742C64.4237 69.9319 64.5462 69.8615 64.6492 69.768C64.7522 69.6744 64.8333 69.5599 64.8868 69.4324C64.9403 69.3049 64.965 69.1674 64.9591 69.0296V68.9067C64.9591 61.7195 59.4961 61.1541 57.8222 61.1541C55.8087 61.0984 53.8538 61.8245 52.3797 63.1754C50.9056 64.5263 50.0308 66.3936 49.9441 68.374ZM13.4849 56.4009V68.374H15.7168C15.7168 65.7352 17.2658 62.8914 20.6635 62.8914C23.4283 62.8914 24.9523 64.6452 24.9523 67.8085V68.374H27.1842V67.8577C27.1842 63.5307 25.0939 61.1459 21.3131 61.1459C20.2279 61.0773 19.1458 61.3214 18.1993 61.8482C17.2528 62.3751 16.4827 63.1619 15.9833 64.1125L15.6918 64.7026V56.4009C15.6918 56.1096 15.5742 55.8303 15.365 55.6244C15.1557 55.4184 14.8718 55.3027 14.5759 55.3027C14.2799 55.3027 13.9961 55.4184 13.7868 55.6244C13.5775 55.8303 13.46 56.1096 13.46 56.4009" fill="url(#paint0_linear_2_856)"/>
<path d="M41.9842 18.9974V34.0725H37.469V28.1307H32.7705V34.0725H28.2553V18.9974H32.7705V24.9901H37.469V18.9974H41.9842ZM57.6959 31.0422V18.9974H53.1807V34.0725H61.3531L62.0279 31.0422H57.6959ZM49.8401 18.9974H45.3248V34.0725H49.8401V18.9974ZM68.1676 18.9974H63.6357V34.0725H68.1509L68.1676 18.9974ZM90.4439 22.8425C90.4439 21.9937 91.2769 21.6457 92.5432 21.6457C93.9183 21.6472 95.2816 21.9032 96.5669 22.4012L96.1754 19.0992C94.8086 18.7871 93.4106 18.639 92.01 18.6578C88.3612 18.6578 85.887 20.1263 85.887 23.2075C85.887 28.5042 92.9347 27.4517 92.9347 29.8878C92.9347 30.8385 92.2599 31.3393 90.5855 31.3393C88.8221 31.2827 87.0869 30.8732 85.4788 30.1339L85.9703 33.6056C87.49 34.11 89.0788 34.365 90.6771 34.3611C94.4426 34.3611 97.5416 33.0963 97.5416 29.3106C97.5416 24.2686 90.4272 25.2108 90.4272 22.8171L90.4439 22.8425ZM84.5457 24.3959C84.5457 28.2411 81.8882 30.448 77.6812 30.448H76.0734V34.047H71.5582V18.9974C73.3864 18.7852 75.2248 18.6776 77.0648 18.6748C81.705 18.6748 84.5624 20.1942 84.5624 24.4214L84.5457 24.3959ZM80.1138 24.4808C80.1138 22.5879 79.0558 21.5184 76.8315 21.5184C76.5982 21.5184 76.3567 21.5184 76.0901 21.5184V27.7487H76.8315C79.1808 27.7487 80.1138 26.4246 80.1138 24.4638V24.4808ZM26.4558 24.4214C26.4558 28.2665 23.7983 30.4735 19.5913 30.4735H17.9835V34.0725H13.46V18.9974C15.2882 18.7855 17.1266 18.6778 18.9665 18.6748C23.6067 18.6748 26.4642 20.1942 26.4642 24.4214H26.4558ZM22.0156 24.4808C22.0156 22.5879 20.9659 21.5184 18.7333 21.5184C18.5 21.5184 18.2584 21.5184 17.9919 21.5184V27.7487H18.7333C21.0825 27.7487 22.0156 26.4246 22.0156 24.4638" fill="#0F70B8"/>
<defs>
<filter id="filter0_d_2_856" x="0" y="0" width="111" height="86.0005" filterUnits="userSpaceOnUse" color-interpolation-filters="sRGB">
<feFlood flood-opacity="0" result="BackgroundImageFix"/>
<feColorMatrix in="SourceAlpha" type="matrix" values="0 0 0 0 0 0 0 0 0 0 0 0 0 0 0 0 0 0 127 0" result="hardAlpha"/>
<feOffset/>
<feGaussianBlur stdDeviation="2"/>
<feColorMatrix type="matrix" values="0 0 0 0 0 0 0 0 0 0 0 0 0 0 0 0 0 0 0.4 0"/>
<feBlend mode="normal" in2="BackgroundImageFix" result="effect1_dropShadow_2_856"/>
<feBlend mode="normal" in="SourceGraphic" in2="effect1_dropShadow_2_856" result="shape"/>
</filter>
<linearGradient id="paint0_linear_2_856" x1="13.46" y1="66.2961" x2="64.96" y2="66.2961" gradientUnits="userSpaceOnUse">
<stop stop-color="#ED1C24"/>
<stop offset="0.06" stop-color="#F03F23"/>
<stop offset="0.13" stop-color="#F26321"/>
<stop offset="0.17" stop-color="#F37021"/>
<stop offset="0.24" stop-color="#F78A1E"/>
<stop offset="0.32" stop-color="#FBA51B"/>
<stop offset="0.37" stop-color="#FCAF1A"/>
<stop offset="0.41" stop-color="#EEB21F"/>
<stop offset="0.5" stop-color="#C7BA2C"/>
<stop offset="0.61" stop-color="#8DC63F"/>
<stop offset="0.64" stop-color="#7DC24D"/>
<stop offset="0.76" stop-color="#3FB184"/>
<stop offset="0.82" stop-color="#26AB9A"/>
<stop offset="0.88" stop-color="#1B9A9F"/>
<stop offset="1" stop-color="#006EAB"/>
</linearGradient>
</defs>
</svg>
