<svg width="32" height="32" viewBox="0 0 32 32" fill="none" xmlns="http://www.w3.org/2000/svg">
    <path
        d="M25 10.9769L23.22 26.1832C23.1267 27.1651 22.3392 27.9252 21.3738 27.9948L21.22 28H10.79C9.80729 28.0044 8.97541 27.2936 8.81043 26.3363L8.79 26.1832L7 10.9769H25ZM20.3723 14.1752C20.0798 13.9664 19.6986 13.93 19.3723 14.0798C19.0822 14.213 18.8746 14.4752 18.8082 14.7837L18.79 14.9014L17.98 23.9449C17.9478 24.3035 18.1087 24.6521 18.4021 24.8593C18.6954 25.0666 19.0766 25.101 19.4021 24.9497C19.6914 24.8151 19.8976 24.552 19.9624 24.2433L19.98 24.1256L20.79 15.0921C20.8239 14.7335 20.6647 14.384 20.3723 14.1752ZM12.2067 13.9837L12.09 13.988C11.5838 14.0372 11.2017 14.4574 11.1868 14.9558L11.19 15.072L12 24.1055C12.0497 24.6598 12.5377 25.0688 13.09 25.0189C13.6028 24.9726 13.9908 24.5469 14.0038 24.0425L14 23.9248L13.18 14.8914C13.131 14.3793 12.7069 13.9941 12.2067 13.9837ZM16 4C17.7383 4 19.2691 5.12531 19.8029 6.76994L19.86 6.96198H25C25.5523 6.96198 26 7.41136 26 7.9657C26 8.48044 25.614 8.90468 25.1166 8.96266L25 8.96942H7C6.44772 8.96942 6 8.52004 6 7.9657C6 7.45095 6.38604 7.02671 6.88338 6.96873L7 6.96198H12.14C12.6134 5.21354 14.1949 4 16 4Z"
        fill="#007AFF" />
</svg>